<svg width="488" height="216" viewBox="0 0 488 216" fill="none" xmlns="http://www.w3.org/2000/svg">
<path d="M6 131.941V53.202L76.2266 0V164.926L6 131.941Z" fill="#08338F"/>
<path d="M146.453 131.941V53.202L76.2265 0V164.926L146.453 131.941Z" fill="url(#paint0_linear_64_19)"/>
<path d="M6 144.709L76.2266 177.695V216L6 173.438V144.709Z" fill="url(#paint1_linear_64_19)"/>
<path d="M146.453 144.709L76.2265 177.695V216L146.453 172.374V144.709Z" fill="url(#paint2_linear_64_19)"/>
<path d="M186.704 93.135L178.85 53.627H165.76V133H175.042V76.951L184.324 133H189.084L198.366 76.951V133H207.886V53.627H194.558L186.704 93.135ZM212.598 53.627V133H240.325V122.647H223.665V96.586H234.613V86.233H223.665V63.98H239.373V53.627H212.598ZM251.451 133H262.518V63.98H273.347V53.627H241.098V63.98H251.451V133ZM283.174 115.15H293.17L295.193 133H306.022L295.669 53.627H281.389L270.56 133H281.27L283.174 115.15ZM291.98 104.797H284.364L288.172 68.026L291.98 104.797ZM309.183 133H335.958V122.647H320.25V53.627H309.183V133ZM353.701 53.627V133H381.428V122.647H364.768V96.586H375.716V86.233H364.768V63.98H380.476V53.627H353.701ZM383.92 53.627V133H395.701C403.436 133 407.006 131.929 410.338 128.597C413.67 125.384 415.336 120.624 415.336 114.674V71.953C415.336 66.003 413.67 61.243 410.338 58.03C407.006 54.698 403.436 53.627 395.701 53.627H383.92ZM394.987 122.647V63.98H396.415C402.365 63.98 404.269 65.884 404.269 71.953V114.674C404.269 120.862 402.484 122.647 396.415 122.647H394.987ZM451.248 92.659H435.302V102.06H440.181V113.484C440.181 118.601 440.062 119.791 439.467 121.1C438.753 122.885 437.206 123.956 435.421 123.956C433.755 123.956 432.446 123.123 431.613 121.457C431.018 120.148 430.899 119.315 430.899 113.484V71.477C430.899 64.575 431.851 62.79 435.421 62.79C439.348 62.79 440.419 65.17 440.419 73.976C440.419 75.761 440.419 76.832 440.181 79.45H451.248C451.486 76.356 451.486 74.809 451.486 73.143C451.486 59.339 446.131 52.437 435.54 52.437C425.068 52.437 419.832 58.863 419.832 71.477V113.484C419.832 120.624 420.308 123.837 422.093 127.169C424.354 131.453 428.757 134.19 433.398 134.19C437.206 134.19 440.538 132.048 443.632 127.526L445.298 133H451.248V92.659ZM455.981 53.627V133H483.708V122.647H467.048V96.586H477.996V86.233H467.048V63.98H482.756V53.627H455.981Z" fill="black"/>
<path d="M176.278 163L170.36 148.326H168.094L162.198 163H164.288L165.586 159.744H172.89L174.188 163H176.278ZM172.34 158.116H166.114L169.238 150.218L172.34 158.116ZM189.284 163L185.324 157.016C187.326 156.84 189.13 155.388 189.13 152.748C189.13 150.042 187.216 148.326 184.532 148.326H178.636V163H180.462V157.17H183.388L187.128 163H189.284ZM184.312 155.564H180.462V149.954H184.312C186.05 149.954 187.238 151.098 187.238 152.748C187.238 154.398 186.05 155.564 184.312 155.564ZM199.413 163.264C202.009 163.264 203.769 162.032 205.001 160.36L203.439 159.502C202.603 160.756 201.085 161.636 199.413 161.636C196.201 161.636 193.759 159.15 193.759 155.674C193.759 152.176 196.201 149.712 199.413 149.712C201.085 149.712 202.603 150.614 203.439 151.846L204.979 150.988C203.813 149.338 202.009 148.084 199.413 148.084C195.189 148.084 191.867 151.164 191.867 155.674C191.867 160.184 195.189 163.264 199.413 163.264ZM220 163V148.326H218.174V154.64H209.594V148.326H207.768V163H209.594V156.268H218.174V163H220ZM225.697 163V148.326H223.871V163H225.697ZM235.03 163V149.954H239.694V148.326H228.562V149.954H233.204V163H235.03ZM252.175 163V161.372H244.387V156.312H252.021V154.684H244.387V149.954H252.175V148.326H242.561V163H252.175ZM262.478 163.264C265.074 163.264 266.834 162.032 268.066 160.36L266.504 159.502C265.668 160.756 264.15 161.636 262.478 161.636C259.266 161.636 256.824 159.15 256.824 155.674C256.824 152.176 259.266 149.712 262.478 149.712C264.15 149.712 265.668 150.614 266.504 151.846L268.044 150.988C266.878 149.338 265.074 148.084 262.478 148.084C258.254 148.084 254.932 151.164 254.932 155.674C254.932 160.184 258.254 163.264 262.478 163.264ZM276.29 163V149.954H280.954V148.326H269.822V149.954H274.464V163H276.29ZM289.805 163.264C293.787 163.264 295.789 160.932 295.789 157.28V148.326H293.963V157.258C293.963 159.942 292.511 161.636 289.805 161.636C287.099 161.636 285.647 159.942 285.647 157.258V148.326H283.821V157.302C283.821 160.91 285.823 163.264 289.805 163.264ZM310.313 163L306.353 157.016C308.355 156.84 310.159 155.388 310.159 152.748C310.159 150.042 308.245 148.326 305.561 148.326H299.665V163H301.491V157.17H304.417L308.157 163H310.313ZM305.341 155.564H301.491V149.954H305.341C307.079 149.954 308.267 151.098 308.267 152.748C308.267 154.398 307.079 155.564 305.341 155.564ZM326.052 163L320.134 148.326H317.868L311.972 163H314.062L315.36 159.744H322.664L323.962 163H326.052ZM322.114 158.116H315.888L319.012 150.218L322.114 158.116ZM337.056 163V161.372H330.236V148.326H328.41V163H337.056ZM350.929 163.264C354.889 163.264 356.341 161.086 356.341 158.952C356.341 153.474 347.651 155.366 347.651 152.066C347.651 150.68 348.905 149.734 350.665 149.734C352.271 149.734 353.811 150.284 354.911 151.494L356.011 150.152C354.779 148.854 353.041 148.106 350.797 148.106C347.915 148.106 345.759 149.756 345.759 152.176C345.759 157.412 354.449 155.322 354.449 159.106C354.449 160.228 353.613 161.636 350.995 161.636C348.927 161.636 347.343 160.624 346.375 159.546L345.297 160.932C346.507 162.296 348.377 163.264 350.929 163.264ZM371.739 163V148.326H369.913V154.64H361.333V148.326H359.507V163H361.333V156.268H369.913V163H371.739ZM385.224 163V161.372H377.436V156.312H385.07V154.684H377.436V149.954H385.224V148.326H375.61V163H385.224ZM398.189 163V161.372H390.401V156.312H398.035V154.684H390.401V149.954H398.189V148.326H388.575V163H398.189ZM406.996 163V149.954H411.66V148.326H400.528V149.954H405.17V163H406.996ZM435.005 163V148.326H432.387L427.811 159.37L423.257 148.326H420.639V163H422.465V150.922L427.437 163H428.185L433.179 150.922V163H435.005ZM448.482 163V161.372H440.694V156.312H448.328V154.684H440.694V149.954H448.482V148.326H438.868V163H448.482ZM457.289 163V149.954H461.953V148.326H450.821V149.954H455.463V163H457.289ZM475.9 163L469.982 148.326H467.716L461.82 163H463.91L465.208 159.744H472.512L473.81 163H475.9ZM471.962 158.116H465.736L468.86 150.218L471.962 158.116ZM486.904 163V161.372H480.084V148.326H478.258V163H486.904Z" fill="black"/>
<path d="M198.407 188L193.953 176.661H191.471L187.017 188H189.278L190.111 185.824H195.313L196.146 188H198.407ZM194.752 184.073H190.672L192.712 178.667L194.752 184.073ZM208.908 188C212.444 188 214.841 185.671 214.841 182.339C214.841 179.007 212.444 176.661 208.908 176.661H204.692V188H208.908ZM208.908 186.249H206.681V178.412H208.908C211.441 178.412 212.801 180.146 212.801 182.339C212.801 184.481 211.373 186.249 208.908 186.249ZM219.09 188V176.661H217.101V188H219.09ZM227.586 188L232.04 176.661H229.779L226.345 185.841L222.911 176.661H220.65L225.104 188H227.586ZM235.608 188V176.661H233.619V188H235.608ZM242.234 188.204C245.294 188.204 246.62 186.589 246.62 184.702C246.62 180.469 240.024 181.778 240.024 179.67C240.024 178.82 240.772 178.259 241.945 178.259C243.135 178.259 244.342 178.667 245.226 179.551L246.365 178.072C245.311 177.052 243.883 176.491 242.115 176.491C239.633 176.491 237.984 177.936 237.984 179.806C237.984 183.988 244.597 182.509 244.597 184.889C244.597 185.637 243.951 186.436 242.319 186.436C240.738 186.436 239.514 185.705 238.732 184.872L237.627 186.402C238.63 187.473 240.143 188.204 242.234 188.204ZM250.781 188V176.661H248.792V188H250.781ZM258.818 188.204C262.218 188.204 264.615 185.722 264.615 182.339C264.615 178.956 262.218 176.474 258.818 176.474C255.418 176.474 253.021 178.956 253.021 182.339C253.021 185.722 255.418 188.204 258.818 188.204ZM258.818 186.436C256.523 186.436 255.061 184.668 255.061 182.339C255.061 179.993 256.523 178.242 258.818 178.242C261.096 178.242 262.575 179.993 262.575 182.339C262.575 184.668 261.096 186.436 258.818 186.436ZM276.697 188V176.661H274.708V184.532L268.911 176.661H266.871V188H268.86V179.908L274.776 188H276.697ZM289.439 188.204C292.839 188.204 295.236 185.722 295.236 182.339C295.236 178.956 292.839 176.474 289.439 176.474C286.039 176.474 283.642 178.956 283.642 182.339C283.642 185.722 286.039 188.204 289.439 188.204ZM289.439 186.436C287.144 186.436 285.682 184.668 285.682 182.339C285.682 179.993 287.144 178.242 289.439 178.242C291.717 178.242 293.196 179.993 293.196 182.339C293.196 184.668 291.717 186.436 289.439 186.436ZM299.48 188V183.104H305.141V181.353H299.48V178.412H305.26V176.661H297.491V188H299.48ZM317.37 188.204C320.77 188.204 323.167 185.722 323.167 182.339C323.167 178.956 320.77 176.474 317.37 176.474C313.97 176.474 311.573 178.956 311.573 182.339C311.573 185.722 313.97 188.204 317.37 188.204ZM317.37 186.436C315.075 186.436 313.613 184.668 313.613 182.339C313.613 179.993 315.075 178.242 317.37 178.242C319.648 178.242 321.127 179.993 321.127 182.339C321.127 184.668 319.648 186.436 317.37 186.436ZM332.409 188V186.249H327.411V176.661H325.422V188H332.409ZM338.42 188.204C341.48 188.204 342.806 186.589 342.806 184.702C342.806 180.469 336.21 181.778 336.21 179.67C336.21 178.82 336.958 178.259 338.131 178.259C339.321 178.259 340.528 178.667 341.412 179.551L342.551 178.072C341.497 177.052 340.069 176.491 338.301 176.491C335.819 176.491 334.17 177.936 334.17 179.806C334.17 183.988 340.783 182.509 340.783 184.889C340.783 185.637 340.137 186.436 338.505 186.436C336.924 186.436 335.7 185.705 334.918 184.872L333.813 186.402C334.816 187.473 336.329 188.204 338.42 188.204ZM348.854 188.204C351.914 188.204 353.24 186.589 353.24 184.702C353.24 180.469 346.644 181.778 346.644 179.67C346.644 178.82 347.392 178.259 348.565 178.259C349.755 178.259 350.962 178.667 351.846 179.551L352.985 178.072C351.931 177.052 350.503 176.491 348.735 176.491C346.253 176.491 344.604 177.936 344.604 179.806C344.604 183.988 351.217 182.509 351.217 184.889C351.217 185.637 350.571 186.436 348.939 186.436C347.358 186.436 346.134 185.705 345.352 184.872L344.247 186.402C345.25 187.473 346.763 188.204 348.854 188.204ZM360.699 188.204C364.099 188.204 366.496 185.722 366.496 182.339C366.496 178.956 364.099 176.474 360.699 176.474C357.299 176.474 354.902 178.956 354.902 182.339C354.902 185.722 357.299 188.204 360.699 188.204ZM360.699 186.436C358.404 186.436 356.942 184.668 356.942 182.339C356.942 179.993 358.404 178.242 360.699 178.242C362.977 178.242 364.456 179.993 364.456 182.339C364.456 184.668 362.977 186.436 360.699 186.436ZM378.577 188V176.661H376.588V184.532L370.791 176.661H368.751V188H370.74V179.908L376.656 188H378.577ZM394.805 188L392.034 183.546C393.394 183.325 394.72 182.237 394.72 180.214C394.72 178.123 393.258 176.661 391.014 176.661H386.033V188H388.022V183.767H389.994L392.51 188H394.805ZM390.742 182.016H388.022V178.412H390.742C391.864 178.412 392.68 179.126 392.68 180.214C392.68 181.302 391.864 182.016 390.742 182.016ZM402.334 188.204C405.734 188.204 408.131 185.722 408.131 182.339C408.131 178.956 405.734 176.474 402.334 176.474C398.934 176.474 396.537 178.956 396.537 182.339C396.537 185.722 398.934 188.204 402.334 188.204ZM402.334 186.436C400.039 186.436 398.577 184.668 398.577 182.339C398.577 179.993 400.039 178.242 402.334 178.242C404.612 178.242 406.091 179.993 406.091 182.339C406.091 184.668 404.612 186.436 402.334 186.436ZM415.673 188.204C419.073 188.204 421.47 185.722 421.47 182.339C421.47 178.956 419.073 176.474 415.673 176.474C412.273 176.474 409.876 178.956 409.876 182.339C409.876 185.722 412.273 188.204 415.673 188.204ZM415.673 186.436C413.378 186.436 411.916 184.668 411.916 182.339C411.916 179.993 413.378 178.242 415.673 178.242C417.951 178.242 419.43 179.993 419.43 182.339C419.43 184.668 417.951 186.436 415.673 186.436ZM425.714 188V183.104H431.375V181.353H425.714V178.412H431.494V176.661H423.725V188H425.714ZM435.6 188V176.661H433.611V188H435.6ZM448.177 188V176.661H446.188V184.532L440.391 176.661H438.351V188H440.34V179.908L446.256 188H448.177ZM456.366 188.221C458.338 188.221 459.919 187.405 461.041 186.164V181.914H455.669V183.665H459.052V185.433C458.542 185.909 457.522 186.453 456.366 186.453C454.122 186.453 452.456 184.719 452.456 182.339C452.456 179.959 454.122 178.242 456.366 178.242C457.641 178.242 458.712 178.905 459.307 179.755L460.939 178.837C460.021 177.528 458.576 176.474 456.366 176.474C453.085 176.474 450.416 178.786 450.416 182.339C450.416 185.892 453.085 188.221 456.366 188.221Z" fill="black"/>
<defs>
<linearGradient id="paint0_linear_64_19" x1="76.2265" y1="94.6995" x2="149.645" y2="94.6995" gradientUnits="userSpaceOnUse">
<stop stop-color="#000D16"/>
<stop offset="0.724881" stop-color="#0C3192"/>
</linearGradient>
<linearGradient id="paint1_linear_64_19" x1="77.2906" y1="195.783" x2="4.93596" y2="161.734" gradientUnits="userSpaceOnUse">
<stop stop-color="#161616"/>
<stop offset="1" stop-color="#333333"/>
</linearGradient>
<linearGradient id="paint2_linear_64_19" x1="81.5467" y1="205.36" x2="148.581" y2="172.374" gradientUnits="userSpaceOnUse">
<stop/>
<stop offset="1" stop-color="#333333"/>
</linearGradient>
</defs>
</svg>
