<svg width="488" height="216" viewBox="0 0 488 216" fill="none" xmlns="http://www.w3.org/2000/svg">
<path d="M6 131.941V53.202L76.2266 0V164.926L6 131.941Z" fill="white" fill-opacity="0.6"/>
<path d="M146.453 131.941V53.202L76.2265 0V164.926L146.453 131.941Z" fill="url(#paint0_linear_5018_2)"/>
<path d="M6 144.709L76.2266 177.695V216L6 173.438V144.709Z" fill="url(#paint1_linear_5018_2)"/>
<path d="M146.453 144.709L76.2265 177.695V216L146.453 172.374V144.709Z" fill="url(#paint2_linear_5018_2)"/>
<path d="M186.704 93.135L178.85 53.627H165.76V133H175.042V76.951L184.324 133H189.084L198.366 76.951V133H207.886V53.627H194.558L186.704 93.135ZM212.598 53.627V133H240.325V122.647H223.665V96.586H234.613V86.233H223.665V63.98H239.373V53.627H212.598ZM251.451 133H262.518V63.98H273.347V53.627H241.098V63.98H251.451V133ZM283.174 115.15H293.17L295.193 133H306.022L295.669 53.627H281.389L270.56 133H281.27L283.174 115.15ZM291.98 104.797H284.364L288.172 68.026L291.98 104.797ZM309.183 133H335.958V122.647H320.25V53.627H309.183V133ZM353.701 53.627V133H381.428V122.647H364.768V96.586H375.716V86.233H364.768V63.98H380.476V53.627H353.701ZM383.92 53.627V133H395.701C403.436 133 407.006 131.929 410.338 128.597C413.67 125.384 415.336 120.624 415.336 114.674V71.953C415.336 66.003 413.67 61.243 410.338 58.03C407.006 54.698 403.436 53.627 395.701 53.627H383.92ZM394.987 122.647V63.98H396.415C402.365 63.98 404.269 65.884 404.269 71.953V114.674C404.269 120.862 402.484 122.647 396.415 122.647H394.987ZM451.248 92.659H435.302V102.06H440.181V113.484C440.181 118.601 440.062 119.791 439.467 121.1C438.753 122.885 437.206 123.956 435.421 123.956C433.755 123.956 432.446 123.123 431.613 121.457C431.018 120.148 430.899 119.315 430.899 113.484V71.477C430.899 64.575 431.851 62.79 435.421 62.79C439.348 62.79 440.419 65.17 440.419 73.976C440.419 75.761 440.419 76.832 440.181 79.45H451.248C451.486 76.356 451.486 74.809 451.486 73.143C451.486 59.339 446.131 52.437 435.54 52.437C425.068 52.437 419.832 58.863 419.832 71.477V113.484C419.832 120.624 420.308 123.837 422.093 127.169C424.354 131.453 428.757 134.19 433.398 134.19C437.206 134.19 440.538 132.048 443.632 127.526L445.298 133H451.248V92.659ZM455.981 53.627V133H483.708V122.647H467.048V96.586H477.996V86.233H467.048V63.98H482.756V53.627H455.981Z" fill="white"/>
<path d="M176.278 163H174.254L172.956 159.744H165.52L164.222 163H162.198L168.094 148.326H170.36L176.278 163ZM172.406 158.116L169.238 149.954L166.048 158.116H172.406ZM189.284 163H187.128L183.388 157.17H180.462V163H178.636V148.326H184.532C187.216 148.326 189.13 150.042 189.13 152.748C189.13 155.388 187.326 156.84 185.324 157.016L189.284 163ZM187.238 152.748C187.238 151.098 186.05 149.954 184.312 149.954H180.462V155.564H184.312C186.05 155.564 187.238 154.398 187.238 152.748ZM199.347 163.264C195.189 163.264 191.867 160.184 191.867 155.674C191.867 151.164 195.189 148.084 199.347 148.084C202.009 148.084 203.813 149.338 204.979 150.988L203.439 151.846C202.603 150.614 201.085 149.712 199.347 149.712C196.201 149.712 193.759 152.176 193.759 155.674C193.759 159.15 196.201 161.636 199.347 161.636C201.085 161.636 202.603 160.756 203.439 159.502L205.001 160.36C203.769 162.032 202.009 163.264 199.347 163.264ZM220 163H218.174V156.268H209.594V163H207.768V148.326H209.594V154.64H218.174V148.326H220V163ZM225.697 163H223.871V148.326H225.697V163ZM235.03 163H233.204V149.954H228.562V148.326H239.694V149.954H235.03V163ZM252.175 163H242.561V148.326H252.175V149.954H244.387V154.684H252.021V156.312H244.387V161.372H252.175V163ZM262.412 163.264C258.254 163.264 254.932 160.184 254.932 155.674C254.932 151.164 258.254 148.084 262.412 148.084C265.074 148.084 266.878 149.338 268.044 150.988L266.504 151.846C265.668 150.614 264.15 149.712 262.412 149.712C259.266 149.712 256.824 152.176 256.824 155.674C256.824 159.15 259.266 161.636 262.412 161.636C264.15 161.636 265.668 160.756 266.504 159.502L268.066 160.36C266.834 162.032 265.074 163.264 262.412 163.264ZM276.29 163H274.464V149.954H269.822V148.326H280.954V149.954H276.29V163ZM283.821 157.302V148.326H285.647V157.258C285.647 159.942 287.099 161.636 289.805 161.636C292.511 161.636 293.963 159.942 293.963 157.258V148.326H295.789V157.28C295.789 160.932 293.787 163.264 289.805 163.264C285.823 163.264 283.821 160.91 283.821 157.302ZM310.313 163H308.157L304.417 157.17H301.491V163H299.665V148.326H305.561C308.245 148.326 310.159 150.042 310.159 152.748C310.159 155.388 308.355 156.84 306.353 157.016L310.313 163ZM308.267 152.748C308.267 151.098 307.079 149.954 305.341 149.954H301.491V155.564H305.341C307.079 155.564 308.267 154.398 308.267 152.748ZM326.052 163H324.028L322.73 159.744H315.294L313.996 163H311.972L317.868 148.326H320.134L326.052 163ZM322.18 158.116L319.012 149.954L315.822 158.116H322.18ZM337.056 163H328.41V148.326H330.236V161.372H337.056V163ZM345.297 160.932L346.375 159.546C347.343 160.624 348.927 161.636 350.995 161.636C353.613 161.636 354.449 160.228 354.449 159.106C354.449 157.346 352.667 156.862 350.731 156.334C348.377 155.718 345.759 155.058 345.759 152.176C345.759 149.756 347.915 148.106 350.797 148.106C353.041 148.106 354.779 148.854 356.011 150.152L354.911 151.494C353.811 150.284 352.271 149.734 350.665 149.734C348.905 149.734 347.651 150.68 347.651 152.066C347.651 153.54 349.345 153.98 351.215 154.486C353.613 155.124 356.341 155.872 356.341 158.952C356.341 161.086 354.889 163.264 350.929 163.264C348.377 163.264 346.507 162.296 345.297 160.932ZM371.739 163H369.913V156.268H361.333V163H359.507V148.326H361.333V154.64H369.913V148.326H371.739V163ZM385.224 163H375.61V148.326H385.224V149.954H377.436V154.684H385.07V156.312H377.436V161.372H385.224V163ZM398.189 163H388.575V148.326H398.189V149.954H390.401V154.684H398.035V156.312H390.401V161.372H398.189V163ZM406.996 163H405.17V149.954H400.528V148.326H411.66V149.954H406.996V163ZM435.005 163H433.179V150.79L428.185 163H427.437L422.465 150.79V163H420.639V148.326H423.257L427.811 159.502L432.387 148.326H435.005V163ZM448.482 163H438.868V148.326H448.482V149.954H440.694V154.684H448.328V156.312H440.694V161.372H448.482V163ZM457.289 163H455.463V149.954H450.821V148.326H461.953V149.954H457.289V163ZM475.9 163H473.876L472.578 159.744H465.142L463.844 163H461.82L467.716 148.326H469.982L475.9 163ZM472.028 158.116L468.86 149.954L465.67 158.116H472.028ZM486.904 163H478.258V148.326H480.084V161.372H486.904V163Z" fill="white"/>
<path d="M198.407 188H196.231L195.398 185.824H190.026L189.193 188H187.017L191.471 176.661H193.953L198.407 188ZM194.837 184.073L192.712 178.344L190.587 184.073H194.837ZM208.908 188H204.692V176.661H208.908C212.444 176.661 214.841 179.007 214.841 182.339C214.841 185.671 212.444 188 208.908 188ZM206.681 178.412V186.249H208.908C211.373 186.249 212.801 184.481 212.801 182.339C212.801 180.146 211.441 178.412 208.908 178.412H206.681ZM219.09 188H217.101V176.661H219.09V188ZM227.586 188H225.104L220.65 176.661H222.911L226.345 185.841L229.779 176.661H232.04L227.586 188ZM235.608 188H233.619V176.661H235.608V188ZM237.627 186.402L238.732 184.872C239.514 185.705 240.738 186.436 242.319 186.436C243.951 186.436 244.597 185.637 244.597 184.889C244.597 183.869 243.39 183.563 242.013 183.206C240.16 182.747 237.984 182.203 237.984 179.806C237.984 177.936 239.633 176.491 242.115 176.491C243.883 176.491 245.311 177.052 246.365 178.072L245.226 179.551C244.342 178.667 243.135 178.259 241.945 178.259C240.772 178.259 240.024 178.82 240.024 179.67C240.024 180.554 241.18 180.843 242.523 181.183C244.393 181.659 246.62 182.237 246.62 184.702C246.62 186.589 245.294 188.204 242.234 188.204C240.143 188.204 238.63 187.473 237.627 186.402ZM250.781 188H248.792V176.661H250.781V188ZM253.021 182.339C253.021 178.956 255.418 176.474 258.818 176.474C262.218 176.474 264.615 178.956 264.615 182.339C264.615 185.722 262.218 188.204 258.818 188.204C255.418 188.204 253.021 185.722 253.021 182.339ZM262.575 182.339C262.575 179.993 261.096 178.242 258.818 178.242C256.523 178.242 255.061 179.993 255.061 182.339C255.061 184.668 256.523 186.436 258.818 186.436C261.096 186.436 262.575 184.668 262.575 182.339ZM276.697 188H274.776L268.86 179.738V188H266.871V176.661H268.911L274.708 184.702V176.661H276.697V188ZM283.642 182.339C283.642 178.956 286.039 176.474 289.439 176.474C292.839 176.474 295.236 178.956 295.236 182.339C295.236 185.722 292.839 188.204 289.439 188.204C286.039 188.204 283.642 185.722 283.642 182.339ZM293.196 182.339C293.196 179.993 291.717 178.242 289.439 178.242C287.144 178.242 285.682 179.993 285.682 182.339C285.682 184.668 287.144 186.436 289.439 186.436C291.717 186.436 293.196 184.668 293.196 182.339ZM299.48 188H297.491V176.661H305.26V178.412H299.48V181.353H305.141V183.104H299.48V188ZM311.573 182.339C311.573 178.956 313.97 176.474 317.37 176.474C320.77 176.474 323.167 178.956 323.167 182.339C323.167 185.722 320.77 188.204 317.37 188.204C313.97 188.204 311.573 185.722 311.573 182.339ZM321.127 182.339C321.127 179.993 319.648 178.242 317.37 178.242C315.075 178.242 313.613 179.993 313.613 182.339C313.613 184.668 315.075 186.436 317.37 186.436C319.648 186.436 321.127 184.668 321.127 182.339ZM332.409 188H325.422V176.661H327.411V186.249H332.409V188ZM333.813 186.402L334.918 184.872C335.7 185.705 336.924 186.436 338.505 186.436C340.137 186.436 340.783 185.637 340.783 184.889C340.783 183.869 339.576 183.563 338.199 183.206C336.346 182.747 334.17 182.203 334.17 179.806C334.17 177.936 335.819 176.491 338.301 176.491C340.069 176.491 341.497 177.052 342.551 178.072L341.412 179.551C340.528 178.667 339.321 178.259 338.131 178.259C336.958 178.259 336.21 178.82 336.21 179.67C336.21 180.554 337.366 180.843 338.709 181.183C340.579 181.659 342.806 182.237 342.806 184.702C342.806 186.589 341.48 188.204 338.42 188.204C336.329 188.204 334.816 187.473 333.813 186.402ZM344.247 186.402L345.352 184.872C346.134 185.705 347.358 186.436 348.939 186.436C350.571 186.436 351.217 185.637 351.217 184.889C351.217 183.869 350.01 183.563 348.633 183.206C346.78 182.747 344.604 182.203 344.604 179.806C344.604 177.936 346.253 176.491 348.735 176.491C350.503 176.491 351.931 177.052 352.985 178.072L351.846 179.551C350.962 178.667 349.755 178.259 348.565 178.259C347.392 178.259 346.644 178.82 346.644 179.67C346.644 180.554 347.8 180.843 349.143 181.183C351.013 181.659 353.24 182.237 353.24 184.702C353.24 186.589 351.914 188.204 348.854 188.204C346.763 188.204 345.25 187.473 344.247 186.402ZM354.902 182.339C354.902 178.956 357.299 176.474 360.699 176.474C364.099 176.474 366.496 178.956 366.496 182.339C366.496 185.722 364.099 188.204 360.699 188.204C357.299 188.204 354.902 185.722 354.902 182.339ZM364.456 182.339C364.456 179.993 362.977 178.242 360.699 178.242C358.404 178.242 356.942 179.993 356.942 182.339C356.942 184.668 358.404 186.436 360.699 186.436C362.977 186.436 364.456 184.668 364.456 182.339ZM378.577 188H376.656L370.74 179.738V188H368.751V176.661H370.791L376.588 184.702V176.661H378.577V188ZM394.805 188H392.51L389.994 183.767H388.022V188H386.033V176.661H391.014C393.258 176.661 394.72 178.123 394.72 180.214C394.72 182.237 393.394 183.325 392.034 183.546L394.805 188ZM392.68 180.214C392.68 179.126 391.864 178.412 390.742 178.412H388.022V182.016H390.742C391.864 182.016 392.68 181.302 392.68 180.214ZM396.537 182.339C396.537 178.956 398.934 176.474 402.334 176.474C405.734 176.474 408.131 178.956 408.131 182.339C408.131 185.722 405.734 188.204 402.334 188.204C398.934 188.204 396.537 185.722 396.537 182.339ZM406.091 182.339C406.091 179.993 404.612 178.242 402.334 178.242C400.039 178.242 398.577 179.993 398.577 182.339C398.577 184.668 400.039 186.436 402.334 186.436C404.612 186.436 406.091 184.668 406.091 182.339ZM409.876 182.339C409.876 178.956 412.273 176.474 415.673 176.474C419.073 176.474 421.47 178.956 421.47 182.339C421.47 185.722 419.073 188.204 415.673 188.204C412.273 188.204 409.876 185.722 409.876 182.339ZM419.43 182.339C419.43 179.993 417.951 178.242 415.673 178.242C413.378 178.242 411.916 179.993 411.916 182.339C411.916 184.668 413.378 186.436 415.673 186.436C417.951 186.436 419.43 184.668 419.43 182.339ZM425.714 188H423.725V176.661H431.494V178.412H425.714V181.353H431.375V183.104H425.714V188ZM435.6 188H433.611V176.661H435.6V188ZM448.177 188H446.256L440.34 179.738V188H438.351V176.661H440.391L446.188 184.702V176.661H448.177V188ZM450.416 182.339C450.416 178.786 453.085 176.474 456.366 176.474C458.576 176.474 460.021 177.528 460.939 178.837L459.307 179.755C458.712 178.905 457.641 178.242 456.366 178.242C454.122 178.242 452.456 179.959 452.456 182.339C452.456 184.719 454.122 186.453 456.366 186.453C457.522 186.453 458.542 185.909 459.052 185.433V183.665H455.669V181.914H461.041V186.164C459.919 187.405 458.338 188.221 456.366 188.221C453.085 188.221 450.416 185.892 450.416 182.339Z" fill="white"/>
<defs>
<linearGradient id="paint0_linear_5018_2" x1="76.2265" y1="94.6995" x2="149.645" y2="94.6995" gradientUnits="userSpaceOnUse">
<stop stop-color="white"/>
<stop offset="1" stop-color="white" stop-opacity="0"/>
</linearGradient>
<linearGradient id="paint1_linear_5018_2" x1="77.2906" y1="195.783" x2="4.93596" y2="161.734" gradientUnits="userSpaceOnUse">
<stop stop-color="white" stop-opacity="0.7"/>
<stop offset="1" stop-color="white" stop-opacity="0.5"/>
</linearGradient>
<linearGradient id="paint2_linear_5018_2" x1="81.5467" y1="205.36" x2="148.581" y2="172.374" gradientUnits="userSpaceOnUse">
<stop stop-color="white"/>
<stop offset="1" stop-color="#FEFEFE" stop-opacity="0.2"/>
</linearGradient>
</defs>
</svg>
