<svg xmlns="http://www.w3.org/2000/svg" xmlns:xlink="http://www.w3.org/1999/xlink" viewBox="0 0 140.4419 27"><defs><style>.a{fill:none;}.b{clip-path:url(#a);}.c{fill:#4a4b96;}.d{clip-path:url(#c);}.e{clip-path:url(#d);}</style><clipPath id="a"><rect class="a" x="-297.1977" y="-240.4535" width="828" height="603"/></clipPath><clipPath id="c"><rect class="a" x="0.7023" y="0.7465" width="139.251" height="26.005"/></clipPath><clipPath id="d"><rect class="a" x="0.7143" y="0.7475" width="139.24" height="26.005"/></clipPath></defs><title>Northwestern Medicine logo</title><g class="b"><g class="b"><polygon class="c" points="51.6 0.747 51.6 9.31 47.521 0.747 44.151 0.747 44.151 11.627 46.348 11.627 46.348 2.598 50.561 11.627 53.766 11.627 53.766 0.747 51.6 0.747"/><g class="d"><path class="c" d="M58.8075,3.8467a3.679,3.679,0,0,1,3.943,3.9881,3.7638,3.7638,0,0,1-3.988,4.0629,3.6736,3.6736,0,0,1-3.883-4.003c0-1.836.933-4.048,3.928-4.048m.03,6.501c.978,0,1.64-.587,1.64-2.603,0-1.009-.195-2.408-1.67-2.408-1.625,0-1.64,1.881-1.64,2.573,0,1.7.571,2.438,1.67,2.438"/><path class="c" d="M63.8932,5.8931c0-.361-.06-1.46-.105-1.896h2.091l.046,1.46a2.2889,2.2889,0,0,1,2.588-1.475v2.001c-2.257-.21-2.393.949-2.393,1.897v3.747h-2.227Z"/><path class="c" d="M74.7764,11.5217a6.9316,6.9316,0,0,1-1.731.241c-2.242,0-2.242-1.415-2.242-2.047V5.5467h-1.46V4.0727h1.46v-1.49l2.212-.813v2.303h1.806v1.474h-1.806v3.431c.015.693.015,1.129,1.008,1.129a5.6345,5.6345,0,0,0,.753-.045Z"/><path class="c" d="M76.1454.7616h2.212v4.304a2.4541,2.4541,0,0,1,2.197-1.144,2.7392,2.7392,0,0,1,2.212,1.023,3.6276,3.6276,0,0,1,.497,2.062v4.62h-2.212V7.0816c0-.436,0-1.655-1.249-1.655a1.3857,1.3857,0,0,0-1.43,1.55l.015,4.65h-2.242Z"/><polygon class="c" points="86.212 4.027 87.611 9.761 89.222 4.027 91.675 4.027 93.27 9.761 94.76 4.027 96.972 4.027 94.368 11.626 91.945 11.626 90.381 5.998 88.785 11.626 86.332 11.626 83.85 4.027 86.212 4.027"/><path class="c" d="M99.2322,8.3918c0,.4961,0,2.0311,1.55,2.0311a1.2443,1.2443,0,0,0,1.324-1.0531h2.032a2.5475,2.5475,0,0,1-.722,1.655,3.6971,3.6971,0,0,1-2.664.888,3.7817,3.7817,0,0,1-2.679-.948A4.1357,4.1357,0,0,1,97.0952,8a4.1678,4.1678,0,0,1,1.58-3.5971,3.811,3.811,0,0,1,2.137-.6309,3.2622,3.2622,0,0,1,3.07,1.8349,5.6427,5.6427,0,0,1,.452,2.785Zm2.829-1.4c0-.346-.03-1.701-1.324-1.701-.978,0-1.385.8131-1.43,1.701Z"/><path class="c" d="M107.3579,9.43a1.1,1.1,0,0,0,1.264,1.038c.798,0,1.174-.451,1.174-.903,0-.346-.181-.617-1.054-.857l-1.384-.377a2.19,2.19,0,0,1-1.926-2.106c0-1.475,1.354-2.378,3.325-2.378,1.566,0,2.83.722,2.89,2.242h-2.032a.9382.9382,0,0,0-1.083-.903c-.602,0-1.054.286-1.054.753,0,.511.377.616,1.039.797l1.369.376c1.385.377,2.032,1.084,2.032,2.122,0,1.31-1.129,2.619-3.492,2.619a3.4291,3.4291,0,0,1-2.603-.933,2.1713,2.1713,0,0,1-.557-1.49Z"/><path class="c" d="M117.8013,11.5217a6.9316,6.9316,0,0,1-1.731.241c-2.242,0-2.242-1.415-2.242-2.047V5.5467h-1.46V4.0727h1.46v-1.49l2.212-.813v2.303h1.806v1.474H116.04v3.431c.016.693.016,1.129,1.009,1.129a5.6294,5.6294,0,0,0,.752-.045Z"/><path class="c" d="M120.6788,8.3918c0,.4961,0,2.0311,1.55,2.0311a1.2449,1.2449,0,0,0,1.324-1.0531h2.032a2.5393,2.5393,0,0,1-.723,1.655,3.6929,3.6929,0,0,1-2.663.888,3.7817,3.7817,0,0,1-2.679-.948A4.1357,4.1357,0,0,1,118.5418,8a4.1678,4.1678,0,0,1,1.58-3.5971,3.811,3.811,0,0,1,2.137-.6309,3.264,3.264,0,0,1,3.07,1.8349,5.6516,5.6516,0,0,1,.451,2.785Zm2.829-1.4c0-.346-.03-1.701-1.324-1.701-.978,0-1.385.8131-1.43,1.701Z"/><path class="c" d="M127.104,5.8931c0-.361-.06-1.46-.105-1.896h2.092l.044,1.46a2.29,2.29,0,0,1,2.589-1.475v2.001c-2.257-.21-2.393.949-2.393,1.897v3.747h-2.227Z"/><path class="c" d="M132.8056,5.3814c0-.03,0-.858-.045-1.384h2.137l.06,1.143a2.6311,2.6311,0,0,1,2.468-1.324,2.3115,2.3115,0,0,1,2.318,1.43,6.3088,6.3088,0,0,1,.21,2.272v4.108h-2.272V6.9014a1.8076,1.8076,0,0,0-.121-.828,1.1584,1.1584,0,0,0-1.083-.647,1.3853,1.3853,0,0,0-1.159.587,2.0832,2.0832,0,0,0-.271,1.159v4.454h-2.242Z"/><polygon class="c" points="44.151 26.526 44.151 15.661 45.716 15.661 49.794 25.127 53.963 15.661 55.452 15.661 55.452 26.526 54.474 26.526 54.474 16.488 54.444 16.488 50.291 26.526 49.313 26.526 45.159 16.534 45.129 16.534 45.129 26.526 44.151 26.526"/><path class="c" d="M57.949,22.96c.03,1.61.768,2.964,2.619,2.964a2.2505,2.2505,0,0,0,2.182-1.806h.948a3.1712,3.1712,0,0,1-3.416,2.634c-2.258,0-3.311-1.941-3.311-4.003,0-2.047,1.129-4.003,3.371-4.003,2.528,0,3.446,1.851,3.446,4.214Zm4.861-.828a2.4152,2.4152,0,0,0-2.453-2.558,2.5026,2.5026,0,0,0-2.378,2.558Z"/><path class="c" d="M70.8,25.4128l-.03-.06a3.07,3.07,0,0,1-2.588,1.399c-2.243,0-3.101-2.137-3.101-4.033,0-1.9559.858-3.9729,3.101-3.9729a3.02,3.02,0,0,1,2.588,1.37l.03-.031v-4.424h.903v9.165c0,.587.045,1.189.075,1.7h-.933Zm-2.468-5.839c-1.716,0-2.272,1.595-2.272,3.04,0,1.3991.406,3.311,2.137,3.311,1.971,0,2.573-1.641,2.573-3.3559,0-1.5351-.677-2.9951-2.438-2.9951"/><path class="c" d="M74.8023,16.79h-1.053v-1.129h1.053Zm-.075,9.737h-.903v-7.554h.903Z"/><path class="c" d="M81.8,21.2891c-.075-1.159-.813-1.715-2.062-1.715-1.384,0-2.242,1.444-2.242,3.16,0,1.73.858,3.19,2.242,3.19a1.9094,1.9094,0,0,0,2.062-1.76h.978a2.6841,2.6841,0,0,1-2.949,2.588c-2.257,0-3.311-1.941-3.311-4.003,0-2.0469,1.129-4.003,3.371-4.003a2.671,2.671,0,0,1,2.889,2.543Z"/><path class="c" d="M85.3963,16.79h-1.054v-1.129h1.054Zm-.076,9.737h-.903v-7.554h.903Z"/><path class="c" d="M88.4958,26.5262h-.903v-5.854c0-.587-.045-1.189-.075-1.7h.933l.045,1.113.03.03a2.5974,2.5974,0,0,1,2.363-1.369c2.468,0,2.663,2.182,2.663,3.055v4.725h-.903V21.65a1.8677,1.8677,0,0,0-1.986-2.076c-1.49,0-2.167,1.249-2.167,2.603Z"/></g><g class="e"><path class="c" d="M95.9592,22.96c.03,1.61.768,2.964,2.619,2.964a2.2505,2.2505,0,0,0,2.182-1.806h.948a3.1712,3.1712,0,0,1-3.416,2.634c-2.258,0-3.311-1.941-3.311-4.003,0-2.047,1.129-4.003,3.371-4.003,2.528,0,3.446,1.851,3.446,4.214Zm4.861-.828a2.4152,2.4152,0,0,0-2.453-2.558,2.5026,2.5026,0,0,0-2.378,2.558Z"/><polygon class="c" points="3.502 4.656 15.296 26.551 21.847 26.551 8.226 0.77 0.703 0.77 0.703 26.551 3.502 26.551 3.502 4.656"/></g><g class="d"><polygon class="c" points="31.186 26.551 36.987 26.551 36.987 0.77 31.196 0.77 24.378 13.032 17.893 0.77 11.262 0.77 22.567 22.127 31.196 6.561 31.186 26.551"/><path class="c" d="M103.1925,16.7875a1.23,1.23,0,1,0,1.227,1.227,1.23,1.23,0,0,0-1.227-1.227m0,2.285a1.055,1.055,0,1,1,1.052-1.058,1.0563,1.0563,0,0,1-1.052,1.058"/><path class="c" d="M103.6654,18.342c-.012-.142-.042-.266-.189-.298V18.04a.3487.3487,0,0,0,.219-.367.3539.3539,0,0,0-.382-.378h-.592v1.446h.167v-.618h.409c.162,0,.192.119.21.261.025.142-.002.298.046.357h.186a.8481.8481,0,0,1-.074-.399m-.428-.381h-.349v-.504h.416c.157,0,.224.105.224.247,0,.21-.134.257-.291.257"/></g></g></g></svg>